<?xml version="1.0" encoding="UTF-8" standalone="no"?>
<!-- Created with Inkscape (http://www.inkscape.org/) -->

<svg
   width="48px"
   height="37px"
   viewBox="0 0 120.99997 92.596344"
   version="1.1"
   id="svg1"
   xml:space="preserve"
   xmlns="http://www.w3.org/2000/svg"
   xmlns:svg="http://www.w3.org/2000/svg"><defs
     id="defs1" /><g
     id="layer1"
     transform="translate(-36.000973,-121)"><path
       style="fill:#9d54ff;fill-opacity:1;stroke-width:0.981641"
       d="m 42.662813,213.0663 c -3.121568,-1.1649 -5.552309,-4.0934 -6.254965,-7.53585 -0.522739,-2.561 -0.550609,-32.54148 -0.03234,-34.78881 0.687094,-2.97941 2.722576,-5.81365 5.056763,-7.04113 2.791089,-1.46775 2.163,-1.44045 32.645337,-1.41879 l 28.105602,0.02 0.0399,-5.64828 c 0.0445,-6.28627 0.21361,-7.33904 1.50824,-9.39004 0.98681,-1.56333 2.32799,-2.59144 4.26844,-3.27205 l 1.32213,-0.46374 0.16977,-4.05391 c 0.0962,-2.29636 0.34368,-4.71428 0.57089,-5.57709 0.42721,-1.62236 1.68648,-4.39562 2.4921,-5.48828 1.2298,-1.66796 3.54877,-3.84817 5.13749,-4.83006 2.07296,-1.28116 6.07612,-2.57827 7.95711,-2.57827 1.73236,0 4.69481,0.59339 6.52533,1.30705 3.14941,1.22785 6.98396,4.77966 8.63893,8.00192 1.48311,2.88765 1.82158,4.432 1.96415,8.96208 l 0.12955,4.11585 1.28777,0.47465 c 1.46854,0.54127 3.80592,2.67778 4.52108,4.13253 0.77604,1.57861 1.01659,3.82998 1.01659,9.51475 v 5.45539 l 1.33853,0.49441 c 0.9898,0.36561 1.80986,0.98237 3.1477,2.36737 2.95534,3.05953 2.78006,1.64862 2.78006,22.37817 v 17.59479 l -0.57739,1.29918 c -1.45322,3.26984 -3.55583,5.17914 -6.5905,5.98458 -1.92399,0.51065 -3.03948,0.52125 -53.871458,0.5119 -50.904626,-0.009 -51.933639,-0.0196 -53.296899,-0.52829 z m 107.111657,-5.25914 c 0.49315,-0.35068 1.17312,-1.05625 1.51105,-1.56793 l 0.61438,-0.93034 0.0694,-16.63848 c 0.0706,-16.96198 0.0178,-18.08848 -0.90129,-19.21541 -0.78005,-0.95642 -1.18252,-0.82641 -1.11625,0.36059 0.10072,1.80427 -0.45389,4.96296 -1.12154,6.38744 -0.71845,1.53291 -2.32943,3.19689 -3.97999,4.11096 l -1.10891,0.6141 h -17.40077 c -9.57042,0 -17.40079,0.0376 -17.40084,0.0835 -5e-5,0.046 0.13913,0.34361 0.30926,0.66146 0.17015,0.31786 0.37093,1.60904 0.44618,2.86929 l 0.13683,2.29137 1.65722,-1.01724 c 2.15967,-1.32565 3.334,-1.56083 4.05544,-0.81217 1.25699,1.30447 0.48514,2.74468 -2.33145,4.35023 -0.80463,0.45867 -1.46298,0.953 -1.46298,1.09852 0,0.14553 0.65835,0.63986 1.46298,1.09853 2.70935,1.54442 3.38629,2.64196 2.46836,4.00198 -0.61386,0.90948 -1.82135,0.76515 -3.85487,-0.46079 l -1.73974,-1.04883 -0.16388,1.90873 c -0.0901,1.04979 -0.28579,2.22991 -0.4348,2.62249 -0.37362,0.98436 -1.34887,1.60247 -2.1848,1.38474 -1.14306,-0.29772 -1.42333,-1.03511 -1.42333,-3.74488 0,-1.35007 -0.0653,-2.45467 -0.14527,-2.45467 -0.0799,0 -0.62488,0.34044 -1.21105,0.75654 -1.59993,1.13572 -2.62063,1.62471 -3.39138,1.62471 -1.639777,0 -2.206,-1.9791 -0.9251,-3.2334 0.38563,-0.37762 1.36358,-1.09733 2.17324,-1.59936 1.61433,-1.00098 1.60969,-1.04178 -0.22701,-2.00174 -1.82078,-0.95165 -2.647358,-1.83434 -2.647358,-2.82711 0,-0.64325 0.186007,-1.03516 0.684408,-1.442 0.88908,-0.72576 1.74405,-0.54609 3.8558,0.81026 0.88452,0.56811 1.65896,1.03293 1.72097,1.03293 0.062,0 0.11275,-1.07939 0.11275,-2.39864 0,-2.63769 0.18866,-3.23061 1.20346,-3.7824 l 0.68072,-0.37013 -1.08015,-0.57185 c -1.44432,-0.76466 -3.03912,-2.45967 -3.63952,-3.86823 -0.64015,-1.50177 -1.0627,-5.09072 -0.84629,-7.18782 l 0.17178,-1.66468 H 73.941749 45.513405 l -1.332538,0.7276 c -1.654218,0.90325 -2.714586,2.38444 -3.056453,4.26945 -0.364745,2.01115 -0.345392,30.53964 0.02192,32.31704 0.334616,1.61917 1.441243,3.04167 2.904385,3.73342 0.980296,0.46346 3.140785,0.48067 52.924567,0.42148 l 51.902554,-0.0617 z m -19.50642,-7.38688 c -0.33141,-0.38002 -0.42195,-1.03296 -0.42195,-3.04271 0,-1.40737 -0.0637,-2.55885 -0.14146,-2.55885 -0.0778,0 -0.89085,0.46906 -1.8068,1.04235 -2.05233,1.28455 -2.96865,1.52368 -3.76462,0.98245 -1.48787,-1.0117 -0.86267,-2.62084 1.61077,-4.14576 0.99411,-0.61289 1.80749,-1.20415 1.80749,-1.3139 0,-0.10976 -0.74539,-0.65193 -1.65638,-1.20482 -0.91101,-0.55289 -1.84798,-1.22497 -2.08216,-1.4935 -0.63638,-0.72975 -0.54488,-2.05128 0.18449,-2.66418 0.83809,-0.70428 1.86404,-0.48527 3.8428,0.82033 0.88281,0.58249 1.69529,1.00124 1.80549,0.93056 0.11021,-0.0707 0.20038,-1.24794 0.20038,-2.61613 0,-2.21834 0.0605,-2.54602 0.55798,-3.02709 0.69887,-0.67568 1.50389,-0.68757 2.28201,-0.0337 0.53708,0.45132 0.61026,0.75753 0.67969,2.84427 0.0428,1.28618 0.12359,2.48281 0.17953,2.65919 0.0668,0.21095 0.69293,-0.0378 1.82945,-0.72706 2.77193,-1.68098 4.18073,-1.66742 4.51043,0.0434 0.22895,1.18795 -0.27715,1.85657 -2.39239,3.16066 -0.98554,0.6076 -1.85142,1.20471 -1.9242,1.32691 -0.0727,0.12219 0.4497,0.52824 1.16105,0.90232 1.5921,0.83723 3.31474,2.41604 3.31474,3.03796 0,0.75924 -0.99561,1.85698 -1.6842,1.85698 -0.634,0 -2.40555,-0.85429 -3.78148,-1.82353 -0.41193,-0.29018 -0.84218,-0.46781 -0.95608,-0.39475 -0.11393,0.0731 -0.20714,1.19738 -0.20714,2.49848 0,2.01286 -0.076,2.44455 -0.5099,2.8948 -0.65106,0.67563 -2.06666,0.69995 -2.63754,0.0453 z m -72.811369,-2.59453 c -0.443544,-0.58517 -0.528419,-1.07063 -0.528419,-3.02244 v -2.32529 l -1.720962,1.01104 c -2.380335,1.39841 -2.905215,1.48587 -3.868589,0.64464 -1.480777,-1.29303 -0.908287,-2.47906 1.963316,-4.06739 0.872616,-0.48266 1.586458,-1.00981 1.586316,-1.17143 -1.43e-4,-0.16163 -0.583652,-0.63391 -1.296688,-1.04951 -2.904916,-1.69317 -3.730212,-3.15552 -2.500857,-4.43129 0.697528,-0.72387 1.559587,-0.55098 3.777405,0.75754 0.922693,0.5444 1.763671,1.0295 1.868841,1.078 0.10517,0.0485 0.191218,-0.9668 0.191218,-2.25623 0,-2.4666 0.260099,-3.22154 1.310994,-3.8052 0.708349,-0.39341 1.971593,0.16328 2.279859,1.0047 0.12843,0.35055 0.233509,1.64164 0.233509,2.8691 0,1.22745 0.04347,2.23173 0.09659,2.23173 0.05312,0 0.76994,-0.42078 1.592925,-0.93506 0.822984,-0.51429 1.93088,-1.07018 2.461993,-1.23531 0.844155,-0.26246 1.052743,-0.23307 1.657783,0.23362 0.430966,0.33242 0.721198,0.83353 0.769176,1.32806 0.09119,0.93991 -0.984381,2.05751 -3.00043,3.11769 -0.686033,0.36077 -1.314783,0.76919 -1.397222,0.90762 -0.08243,0.13843 0.528521,0.62692 1.35769,1.08555 2.695718,1.49105 3.711022,3.05778 2.771693,4.27703 -0.793827,1.03038 -2.124304,0.75331 -4.561435,-0.94991 -0.747735,-0.52257 -1.447099,-0.95012 -1.554141,-0.95012 -0.107042,0 -0.194621,1.16987 -0.194621,2.59971 0,2.37535 -0.05092,2.64936 -0.590086,3.175 -0.834977,0.81403 -2.037518,0.75988 -2.705857,-0.12185 z m 24.475917,0 c -0.44882,-0.59213 -0.52842,-1.06896 -0.52842,-3.16542 v -2.46828 l -1.593484,1.03132 c -1.767511,1.14395 -2.701273,1.46483 -3.589434,1.2335 -0.572281,-0.14905 -1.191019,-1.12531 -1.191019,-1.87921 0,-0.56036 1.355984,-1.83999 2.921163,-2.75668 0.777213,-0.45519 1.412842,-0.9159 1.412508,-1.02379 -3.33e-4,-0.1079 -0.632212,-0.53866 -1.404175,-0.95726 -1.468164,-0.7961 -2.929496,-2.27748 -2.929496,-2.96969 0,-0.69492 0.514484,-1.4435 1.169787,-1.70206 0.800154,-0.3157 2.138452,0.14411 3.732921,1.28255 0.649367,0.46364 1.246043,0.84299 1.325948,0.84299 0.0799,0 0.145281,-1.04507 0.145281,-2.32238 0,-1.70118 0.109178,-2.48414 0.408165,-2.92712 0.924451,-1.36966 2.642928,-1.20682 3.148549,0.29837 0.147206,0.43822 0.267648,1.73149 0.267648,2.87395 0,1.14245 0.06365,2.07718 0.141444,2.07718 0.07779,0 0.8813,-0.46308 1.785568,-1.02906 2.897804,-1.81373 4.446927,-1.64137 4.446927,0.49478 0,1.15243 -0.488709,1.69853 -2.651194,2.96253 -0.827132,0.48347 -1.494526,0.9981 -1.483097,1.14362 0.01143,0.14553 0.745539,0.71529 1.631359,1.26614 1.681977,1.04595 2.757887,2.09213 2.757887,2.68169 0,0.19054 -0.237793,0.66015 -0.52842,1.04358 -0.790283,1.04261 -1.811102,0.92133 -4.072443,-0.48383 l -1.900553,-1.18097 -0.07367,2.56395 c -0.06296,2.19115 -0.152829,2.65139 -0.618097,3.16534 -0.773731,0.85469 -2.045013,0.81014 -2.731653,-0.0957 z m 61.754812,-23.09638 1.07369,-1.03934 v -11.50705 -11.50705 l -0.6374,-0.71687 c -1.3424,-1.50979 -0.96994,-1.48026 -18.31559,-1.45227 -18.02219,0.0291 -16.99839,-0.0911 -18.07958,2.12248 -0.5658,1.15842 -0.57365,1.31595 -0.57365,11.51341 0,10.20146 0.008,10.35435 0.57365,11.49988 1.10408,2.23443 0.15604,2.12616 18.61779,2.12616 h 16.26739 z m -18.83214,-3.54022 c -0.74212,-0.66182 -0.74614,-0.68144 -0.83156,-4.05907 l -0.0858,-3.39404 -1.12522,-1.24837 c -1.06702,-1.1838 -1.12522,-1.32903 -1.12522,-2.80807 0,-1.92099 0.63805,-3.01303 2.29068,-3.92053 1.91955,-1.05407 4.23737,-0.71487 5.73499,0.83929 1.76116,1.82766 1.72061,4.31449 -0.0982,6.01969 l -0.99116,0.92927 -0.09,3.45774 c -0.10138,3.89645 -0.32389,4.40978 -2.03654,4.69819 -0.71815,0.12095 -1.04445,0.0188 -1.64198,-0.5141 z m 12.9533,-29.92761 c 0.3084,-5.53008 -0.55883,-8.45305 -3.41204,-11.50022 -2.30496,-2.46164 -3.96821,-3.20497 -7.51574,-3.35888 -4.24831,-0.18432 -6.41683,0.6781 -9.17025,3.64699 -1.57517,1.69844 -2.21769,2.79383 -2.76207,4.70887 -0.41024,1.44311 -0.85312,7.54878 -0.59767,8.2394 0.10941,0.29574 2.19282,0.35956 11.73696,0.35956 h 11.60394 z"
       id="path1" /></g></svg>
